# xmcd
#
# Track frame offsets:
#	150
#	17990
#	29960
#	43008
#	59032
#	70810
#	82400
#	98947
#	110465
#	125960
#	139787
#
# Disc length: 2013 seconds
#
# Revision: 0
# Processed by: cddbd v1.5.2PL0 Copyright (c) Steve Scherf et al.
# Submitted via: EZCDAudioConverter 1.1.0.1
#
DISCID=b207db0b
DTITLE=Bobby Goldsboro - Bobby Goldsboro's Greatest Hits
DYEAR=1970
DGENRE=Country-Pop
TTITLE0=Honey
TTITLE1=The Straight Life
TTITLE2=Glad She's A Woman
TTITLE3=I'm A Drifter
TTITLE4=See The Funny Little Clown
TTITLE5=It's Too Late
TTITLE6=With Pen In Hand
TTITLE7=Muddy Mississippi Line
TTITLE8=Autumn Of My Life
TTITLE9=Can You Feel It
TTITLE10=Blue Autumn
EXTD=
EXTT0=
EXTT1=
EXTT2=
EXTT3=
EXTT4=
EXTT5=
EXTT6=
EXTT7=
EXTT8=
EXTT9=
EXTT10=
PLAYORDER=
